<svg xmlns="http://www.w3.org/2000/svg" viewBox="0 0 640 640"><rect width="472.17" height="588.57" x="83.913" y="24.979" fill="#e8e6e3" rx="24.984"/><path fill="#707070" d="M290.56 24.952v314.37c0 16.112 12.922 29.195 29.033 29.195h.806c16.112 0 29.034-13.083 29.034-29.195V24.952z"/><path fill="#ddd" d="M304.49 40.468h31.021v15.366H304.49zm5.26 15.557h20.496v10.132H309.75zm0 20.713h20.496V86.87H309.75zm0 20.61h20.496v10.132H309.75zm0 20.642h20.496v10.132H309.75zm0 20.63h20.496v10.132H309.75zm0 20.65h20.496v10.132H309.75zm0 20.65h20.496v10.132H309.75zm0 20.64h20.496v10.132H309.75zm0 20.65h20.496v10.132H309.75zm0 20.64h20.496v10.132H309.75zm0 20.65h20.496v10.132H309.75zm0 20.65h20.496v10.132H309.75zm0 20.64h20.496v10.132H309.75zm0 20.65h20.496v10.132H309.75zm0-258.025h20.496v10.132H309.75zm0 20.61h20.496v10.132H309.75zm0 20.645h20.496v10.132H309.75zm0 20.65h20.496v10.132H309.75zm0 20.63h20.496v10.132H309.75zm0 20.64h20.496v10.132H309.75zm0 20.65h20.496v10.132H309.75zm0 20.65h20.496v10.132H309.75zm0 20.64h20.496v10.132H309.75zm0 20.65h20.496v10.132H309.75zm0 20.64h20.496v10.132H309.75zm0 20.65h20.496v10.132H309.75zm0 20.65h20.496v10.132H309.75z"/><path fill="#323232" d="M304.49 50.358h31.021v5.476H304.49zm5.26 10.88h20.496v4.919H309.75zm0 20.533h20.496v5.1H309.75zm0 20.619h20.496v5.1H309.75zm0 20.82h20.496v4.919H309.75zm0 20.47h20.496v5.1H309.75zm0 20.65h20.496v5.1H309.75zm0 20.8h20.496v4.919H309.75zm0 20.49h20.496v5.1H309.75zm0 20.8h20.496v4.919H309.75zm0 20.65h20.496v4.919H309.75zm0 20.64h20.496v4.919H309.75zm0 20.86h20.496v4.738H309.75zm0 20.44h20.496v4.919H309.75zm0 20.64h20.496v4.919H309.75zm0-258.202h20.496v5.1H309.75zm0 20.615h20.496v5.1H309.75zm0 20.647h20.496v5.1H309.75zm0 20.83h20.496v4.919H309.75zm0 20.47h20.496v5.1H309.75zm0 20.64h20.496v5.1H309.75zm0 20.65h20.496v5.1H309.75zm0 20.44h20.496v5.28H309.75zm0 20.85h20.496v5.1H309.75zm0 20.8h20.496v4.919H309.75zm0 20.29h20.496v5.28H309.75zm0 21h20.496v4.919H309.75zm0 20.65h20.496v4.919H309.75z"/><path fill="#ddd" d="M304.44 334.76h31.124v20.698H304.44z"/><path fill="#707070" d="M313.39 40.68h13.219v293.53H313.39z" opacity=".5"/><path fill="#ddd" d="M298.87 354.58v66.945c0 16.097 9.425 29.087 21.13 29.087s21.13-12.99 21.13-29.087V354.58zm21.614 19.237c5.374 0 9.678 4.564 9.678 10.157s-4.305 10.157-9.678 10.157-9.678-4.564-9.678-10.157 4.305-10.157 9.678-10.157"/></svg>