<svg xmlns="http://www.w3.org/2000/svg" viewBox="0 0 640 640"><path fill="#e8e6e3" d="M569.11 31.829c-193.35-6.43-351.73 64.89-351.73 64.89l-.115 361.93c-19.687-7.815-43.627-9.667-67.943-3.757-52.423 12.738-86.752 56.677-76.675 98.157s60.74 64.786 113.16 52.054c49.428-12.011 82.753-51.765 77.957-91.03v-270.43s111.99-39.153 257.26-48.971v201.13c-19.473-7.457-42.958-9.148-66.83-3.348-52.422 12.732-86.751 56.671-76.674 98.157s60.734 64.78 113.16 52.048c45.774-11.122 77.749-46.04 78.418-82.326l.017.023z"/></svg>