<svg xmlns="http://www.w3.org/2000/svg" viewBox="0 0 640 640"><path fill="#e8e6e3" d="m395.503 48.595-.044.042c-8.26-.202-15.483 3.138-20.424 13.874l-15.329 30.748c-5.213 10.442-10.077 21.06-22.56 21.06H296.57c-12.484.018-17.254-10.643-22.515-21.06l-17.649-34.843c-6.48-15.58-23.715-8.17-35.843-3.913l-16.238 7.004.171.09c-17.556 8.301-36.834 13.751-28.43 35.844l11.236 32.431c3.799 11.034 8.01 21.975-.727 30.886l-28.474 29.02c-8.707 8.948-19.72 4.771-30.84 1.226l-37.208-11.782c-8.069-3.242-13.8-.255-18.194 5.095v.043c-3.014 3.647-5.272 8.177-7.369 12.645l-11.508 27.747c-1.878 6.011-4.143 13.468-4.095 20.195.038 6.982 2.585 13.125 10.689 16.24l35.342 16.739c10.553 4.981 21.32 9.419 21.606 21.924l1.139 40.528c.317 12.48-10.217 17.705-20.515 23.198L66.9 379.632c-19.72 9.728-13.493 24.989-6.732 41.575l4.639 10.871c.082.218.166.393.335.591 4.001 8.623 7.814 17.546 13.282 23.38 5.602 5.932 12.915 8.64 23.971 4.501l32.568-10.961c11.057-3.743 21.978-7.882 30.84.899l28.747 28.656c8.884 8.772 4.848 19.694 1.227 30.795l-12.1 37.116c-6.383 15.645 10.917 22.847 22.516 28.384l26.337 10.962c6.08 1.836 13.51 4.334 20.287 4.413h.043c6.935.09 13.069-2.314 16.102-10.461l16.239-35.57c4.865-10.608 9.265-21.388 21.742-21.834l40.574-1.592c12.476-.473 17.685 10.004 23.289 20.241l16.511 30.158c7.976 15.736 19.39 14.194 32.114 9.325l23.744-10.28c5.257-2.59 11.23-5.462 15.692-9.325 5.217-4.525 8.165-10.254 4.731-18.24l-12.736-37.025c-3.812-11.03-8.171-21.85.552-30.795l28.247-29.156c8.706-8.947 19.67-5.032 30.794-1.5l32.75 10.462c19.07 6.722 25.516-6.582 31.886-21.651l5.822-13.964c6.604-16.534 12.88-32.087-6.731-41.53l-30.476-15.92c-10.348-5.394-20.867-10.397-20.65-22.88l.74-40.573c.2-12.482 10.97-17.11 21.47-22.197l35.207-17.012c8.083-3.198 10.569-9.45 10.598-16.466l.044-.042c.049-7.017-2.481-14.72-4.457-20.833l-12.19-28.02c-2.812-5.483-6.085-12.065-10.508-16.83-4.804-5.162-10.87-8.045-18.831-4.549l-36.798 13.055c-11.002 3.895-21.879 8.217-30.885-.467l-29.339-28.02c-9.025-8.626-5.084-19.644-1.638-30.794l10.098-32.841c7.376-21.425-9.849-27.224-26.973-34.479-.743-.317-1.4-.594-2.138-.911l-8.688-3.64c-7.994-2.967-16.018-5.915-23.243-6.095zM324.36 181.642a138.17 138.17 0 0 1 94.975 42.076 138.166 138.166 0 0 1-3.32 195.364 138.166 138.166 0 0 1-195.365-3.32 138.166 138.166 0 0 1 3.32-195.365 138.17 138.17 0 0 1 100.39-38.753z"/></svg>