<svg xmlns="http://www.w3.org/2000/svg" viewBox="0 0 640 640"><path fill="#faf9f6" d="m183.76 180.92-38.296-38.725.148 279.71.463 13.058c.185 6.173 1.342 13.095 3.193 20.298l303.32 108.13 75.888-33.954.064-.112-344.8-348.4z"/><path fill="#edccd2" d="M149.28 455.25h.028a3 3 0 0 0-.13-.374c.065.14.065.28.093.374zm379.12 74.175-75.888 33.954-303.27-108.13c5.784 22.486 18.62 47.76 32.41 61.548l98.932 99.496 220.15.28 27.579-87.148z"/><g fill="#edccd2" stroke-width=".107"><path d="M146.505 142.203 28.574 322.217c-9.791 10.57-4.905 32.383 10.856 48.453l68.076 69.368 42.794 15.246c-1.851-7.183-3.017-14.03-3.193-20.297l-.463-13.058-.139-279.707z"/><path d="M455.09 145.804c-7.125-1.824-13.955-2.974-20.11-3.152l-13.678-.505-275.833.066 383.066 387.116 33.65-76.701-107.076-306.805z"/></g><path fill="#edccd2" d="M454.74 145.74c.12.047.25.075.352.094v-.038c-.12-.028-.232-.028-.352-.075zm61.219 32.907c-13.928-14.171-38.592-27.126-60.868-32.813l107.08 306.78-33.687 76.701 82.199-26.546.185-227.78-94.915-96.344z"/><path fill="#faf9f6" d="m440.08 102.82-68.484-68.844c-15.973-15.873-37.555-20.831-47.92-10.953l-178.1 119.17 275.83-.065 13.678.505c6.154.187 12.993 1.328 20.11 3.152l-15.104-42.981z"/></svg>