<svg xmlns="http://www.w3.org/2000/svg" xmlns:xlink="http://www.w3.org/1999/xlink" viewBox="0 0 640 640"><defs><clipPath id="a"><path d="M76 2v46H54v23H35.58l-.206 2c-1.15 12.53 1.036 24.088 6.063 33.97l1.688 3.03c1 1.817 2.2 3.523 3.438 5.188s1.686 2.583 2.47 3.688C62.32 133.8 82.13 141 105 141c50.648 0 93.633-22.438 112.66-72.844 13.497 1.384 26.444-2.076 32.344-13.593-9.4-5.424-21.478-3.685-28.437-.187L240.004 2l-72 46h-23V2z"/></clipPath></defs><path fill="#faf9f6" d="M369.278 254.165h56.402v57.658h28.522a123.7 123.7 0 0 0 39.195-6.573c6.145-2.084 13.012-4.97 19.05-8.603-7.962-10.393-12.023-23.512-13.36-36.47-1.629-17.594 1.925-40.504 13.84-54.278l5.932-6.853 7.08 5.678c17.795 14.294 32.757 34.266 35.402 57.043 21.414-6.306 46.57-4.81 65.459 6.091l7.748 4.476-4.074 7.962c-15.857 31.126-49.255 40.785-81.891 39.075-48.84 121.633-155.165 179.224-284.08 179.224-66.607 0-127.711-24.901-162.498-83.988-2.044-3.674-3.78-7.508-5.638-11.275-11.755-26.01-15.67-54.505-13.025-82.826l.802-8.523h48.092v-57.777h56.402v-56.402h112.817v-56.402h67.69V254.22"/><g stroke-width=".102" clip-path="url(#a)" transform="translate(5.453 141.349)scale(2.46687)"><g id="d" stroke-width=".102"><g id="c" transform="translate(0 -22.866)"><path fill="#faf9f6" d="M123.86 3.8h19.818v19.817H123.86z"/><path fill="#ffb3c1" d="M123.86 26.676h19.818v19.818H123.86z"/><path id="b" stroke="#faf9f6" stroke-width=".159" d="M126.29 21.977V5.46m2.972 16.516V5.46m3.002 16.516V5.46m3.003 16.516V5.46m3.003 16.516V5.46m2.97 16.516V5.46"/><use xlink:href="#b" y="22.866"/></g><use xlink:href="#c" transform="matrix(1 0 0 -1 22.866 4.573)"/></g><use xlink:href="#d" x="-91.464" y="45.732"/><use xlink:href="#d" x="-45.732" y="45.732"/><use xlink:href="#d" y="45.732"/><path fill="#ffb3c1" d="M221.57 54.38c1.533-11.915-7.384-21.275-12.914-25.718-6.373 7.368-7.363 26.678 2.635 34.807-5.58 4.956-17.337 9.448-29.376 9.448H33.995c-1.17 12.567 0 73.083 0 73.083h217l-.987-91.424c-9.4-5.424-21.484-3.694-28.443-.197"/><path fill="#faf9f6" d="M111.24 140.9c-13.54-6.425-20.972-15.16-25.107-24.694L45.003 118l21 28z"/></g><path fill="#faf9f6" d="M257.49 405.202a13.493 13.493 0 0 1-13.479 13.48 13.493 13.493 0 0 1-13.492-13.48 13.493 13.493 0 0 1 13.492-13.492 13.493 13.493 0 0 1 13.48 13.492"/><path fill="#faf9f6" d="M247.645 396.212a3.93 3.93 0 0 0-1.977 3.42 3.94 3.94 0 0 0 3.94 3.94c1.497 0 2.672-.828 3.474-2.057a9.8 9.8 0 0 1 .735 3.7c0 5.344-4.329 9.66-9.659 9.66s-9.658-4.33-9.658-9.66 4.328-9.658 9.658-9.658a9.6 9.6 0 0 1 3.5.655zM5.446 363.749h627.392c-13.666-3.473-43.216-8.015-38.34-26.05-24.848 28.749-84.75 20.039-99.859 5.985-16.832 24.42-114.847 15.136-121.673-4.008-21.108 24.768-86.5 24.768-107.607 0-6.84 19.024-104.842 28.322-121.567 4.008-15.256 14.054-75.158 22.777-100.006-5.985 4.876 17.901-24.687 22.71-38.34 26.05"/></svg>