<svg xmlns="http://www.w3.org/2000/svg" xmlns:xlink="http://www.w3.org/1999/xlink" viewBox="0 0 640 640"><defs><clipPath id="a"><path d="M76 2v46H54v23H35.58l-.206 2c-1.15 12.53 1.036 24.088 6.063 33.97l1.688 3.03c1 1.817 2.2 3.523 3.438 5.188s1.686 2.583 2.47 3.688C62.32 133.8 82.13 141 105 141c50.648 0 93.633-22.438 112.66-72.844 13.497 1.384 26.444-2.076 32.344-13.593-9.4-5.424-21.478-3.685-28.437-.187L240.004 2l-72 46h-23V2z"/></clipPath></defs><path fill="#394d54" d="M360.616 248.311h61.422v62.79h31.06a134.7 134.7 0 0 0 42.684-7.158c6.692-2.27 14.17-5.412 20.745-9.37-8.67-11.318-13.093-25.604-14.548-39.715-1.775-19.16 2.095-44.11 15.072-59.109l6.46-7.463 7.71 6.183c19.377 15.566 35.671 37.315 38.552 62.12 23.32-6.867 50.714-5.238 71.285 6.634l8.438 4.873-4.437 8.67c-17.269 33.898-53.639 44.416-89.18 42.554-53.187 132.46-168.975 195.176-309.363 195.176-72.536 0-139.079-27.118-176.962-91.464-2.226-4-4.117-8.176-6.139-12.278-12.802-28.325-17.065-59.356-14.184-90.198l.873-9.281h52.372v-62.92h61.422v-61.422h122.858V125.51h73.715v122.86"/><g stroke-width=".093" clip-path="url(#a)" transform="translate(-35.591 125.453)scale(2.68643)"><g id="d" stroke-width=".093"><g id="c" transform="translate(0 -22.866)"><path fill="#e8e6e3" d="M123.86 3.8h19.818v19.817H123.86z"/><path fill="#707070" d="M123.86 26.676h19.818v19.818H123.86z"/><path id="b" stroke="#394d54" stroke-width=".146" d="M126.29 21.977V5.46m2.972 16.516V5.46m3.002 16.516V5.46m3.003 16.516V5.46m3.003 16.516V5.46m2.97 16.516V5.46"/><use xlink:href="#b" y="22.866"/></g><use xlink:href="#c" transform="matrix(1 0 0 -1 22.866 4.573)"/></g><use xlink:href="#d" x="-91.464" y="45.732"/><use xlink:href="#d" x="-45.732" y="45.732"/><use xlink:href="#d" y="45.732"/><path fill="#707070" d="M221.57 54.38c1.533-11.915-7.384-21.275-12.914-25.718-6.373 7.368-7.363 26.678 2.635 34.807-5.58 4.956-17.337 9.448-29.376 9.448H33.995c-1.17 12.567 0 73.083 0 73.083h217l-.987-91.424c-9.4-5.424-21.484-3.694-28.443-.197"/><path fill="#e8e6e3" d="M111.24 140.9c-13.54-6.425-20.972-15.16-25.107-24.694L45.003 118l21 28z"/></g><path fill="#e8e6e3" d="M238.878 412.79a14.693 14.693 0 0 1-14.678 14.68 14.693 14.693 0 0 1-14.694-14.68 14.693 14.693 0 0 1 14.694-14.693 14.693 14.693 0 0 1 14.678 14.694"/><path fill="#394d54" d="M228.157 403a4.28 4.28 0 0 0-2.154 3.724 4.29 4.29 0 0 0 4.292 4.292c1.63 0 2.91-.902 3.783-2.24a10.6 10.6 0 0 1 .8 4.03c0 5.818-4.714 10.517-10.518 10.517s-10.519-4.713-10.519-10.518 4.714-10.518 10.519-10.518a10.5 10.5 0 0 1 3.811.713zM-35.6 367.648h683.233c-14.883-3.782-47.063-8.729-41.753-28.368-27.06 31.307-92.293 21.822-108.746 6.517-18.33 26.594-125.07 16.483-132.504-4.364-22.985 26.972-94.198 26.972-117.184 0-7.448 20.716-114.172 30.841-132.387 4.364-16.613 15.305-81.847 24.804-108.906-6.517 5.31 19.494-26.885 24.731-41.753 28.368"/></svg>