<svg xmlns="http://www.w3.org/2000/svg" viewBox="0 0 640 640"><path fill="#faf9f6" d="M605.14 293.71 346.4 34.97a38.15 38.15 0 0 0-53.967 0l-53.708 53.708 68.153 68.153c15.853-5.556 34.003-1.76 46.633 10.871a45.37 45.37 0 0 1 10.76 46.911l65.69 65.69c15.89-5.482 34.225-1.945 46.911 10.779a45.422 45.422 0 1 1-64.246 64.227c-13.334-13.334-16.631-32.966-9.89-49.393l-61.264-61.264v161.22a46.3 46.3 0 0 1 12.038 8.593 45.415 45.415 0 1 1-64.227 64.227 45.374 45.374 0 0 1 0-64.227c4.39-4.37 9.26-7.686 14.872-9.908v-162.72a45.1 45.1 0 0 1-14.872-9.908 45.37 45.37 0 0 1-9.778-49.652l-67.227-67.19-177.42 177.24a38.15 38.15 0 0 0 0 53.986l258.76 258.72a38.15 38.15 0 0 0 53.967 0l257.56-257.15a38.15 38.15 0 0 0 0-53.986"/></svg>