<svg xmlns="http://www.w3.org/2000/svg" viewBox="0 0 640 640"><switch stroke-width=".114" transform="translate(-145.32 57.098)scale(8.7718)"><g fill="#faf9f6" stroke-width=".083"><path d="M-2.32 22.762c-.138 0-.274-.137-.138-.273l.958-1.368c.137-.137.273-.274.547-.274h17.236c.136 0 .273.137.136.274l-.82 1.23c-.137.138-.274.274-.548.274zm-7.25 4.377c-.137 0-.274-.136-.137-.273l.957-1.368c.137-.137.274-.274.547-.274H13.82c.137 0 .274.137.274.274l-.41 1.368c0 .137-.274.273-.41.273zm11.626 4.514c-.136 0-.273-.136-.136-.273l.684-1.231c.136-.137.273-.274.547-.274h9.575c.137 0 .274.137.274.274l-.137 1.094a.294.294 0 0 1-.274.274zm50.066-9.848-8.071 2.051c-.684.137-.82.274-1.368-.547-.684-.82-1.231-1.368-2.325-1.778-3.01-1.505-6.02-1.094-8.755.684-3.283 2.052-4.924 5.198-4.924 9.165 0 3.83 2.735 6.976 6.566 7.523 3.283.41 6.018-.684 8.207-3.146.41-.547.82-1.094 1.368-1.778h-9.302c-.957 0-1.231-.684-.957-1.505.684-1.504 1.778-3.967 2.462-5.198.137-.273.547-.82 1.231-.82h17.51c-.138 1.367-.138 2.598-.275 3.966-.547 3.42-1.778 6.703-3.966 9.439-3.42 4.514-7.934 7.387-13.68 8.207-4.787.684-9.164-.273-12.994-3.146q-5.336-4.103-6.156-10.67c-.684-5.198.958-9.985 4.104-14.089 3.42-4.514 7.934-7.387 13.542-8.344 4.514-.82 8.891-.274 12.721 2.325 2.6 1.642 4.378 3.967 5.609 6.84.137.547 0 .684-.547.82" class="st0"/><path d="M67.99 48.479c-4.378-.137-8.345-1.368-11.765-4.24-2.872-2.463-4.65-5.61-5.198-9.303-.82-5.471.684-10.259 3.967-14.5 3.557-4.65 7.797-6.976 13.542-8.07 4.925-.82 9.576-.41 13.68 2.462 3.83 2.6 6.155 6.156 6.839 10.807.82 6.566-1.094 11.764-5.472 16.278-3.146 3.283-7.113 5.198-11.49 6.155-1.505.274-2.873.274-4.104.41m11.49-19.425c0-.683 0-1.094-.137-1.641-.82-4.788-5.198-7.523-9.85-6.43-4.513.958-7.386 3.831-8.48 8.345-.82 3.693.957 7.523 4.377 9.165 2.6 1.094 5.335.958 7.797-.274 3.967-1.915 6.019-5.06 6.293-9.165" class="st0"/></g></switch></svg>