<svg xmlns="http://www.w3.org/2000/svg" viewBox="0 0 640 640"><g fill="#faf9f6" stroke-width="2.133"><path d="m97.765 480.85-22.617-13.076 252.24-436.87 22.616 13.076z"/><path d="M69.946 432.86h504.51v26.153H69.946z"/><path d="M332.28 593.28 79.94 447.59l13.076-22.617 252.34 145.69zM551.5 213.53 299.14 67.86l13.076-22.617 252.34 145.69z"/><path d="m93.077 213.44-13.076-22.617 252.57-145.73 13.076 22.616z"/><path d="M546.85 480.85 294.57 43.94l22.616-13.076 252.28 436.91zM89.95 173.47h26.153v291.38H89.95zm438.51 0h26.153v291.38H528.46z"/><path d="m327.84 582.19-11.411-19.779 219.48-126.71 11.411 19.779z"/><path d="M589.26 473.37a55.1 55.1 0 0 1-75.128 20.17 55.1 55.1 0 0 1-20.17-75.128 55.1 55.1 0 0 1 75.128-20.17c26.461 15.276 35.446 48.831 20.149 75.128m-438.8-253.43a55.1 55.1 0 0 1-75.128 20.17 55.1 55.1 0 0 1-20.17-75.149 55.1 55.1 0 0 1 75.128-20.17 55.1 55.1 0 0 1 20.17 75.128m-95.133 253.45a55.1 55.1 0 0 1 20.17-75.128 55.1 55.1 0 0 1 75.128 20.17 55.1 55.1 0 0 1-20.17 75.128c-26.461 15.112-60.037 6.168-75.128-20.149m438.82-253.43a55.1 55.1 0 0 1 20.17-75.128 55.1 55.1 0 0 1 75.128 20.17 55.1 55.1 0 0 1-20.17 75.128 55.1 55.1 0 0 1-75.128-20.17m-171.84 407.61a54.979 54.979 0 1 1 54.979-54.958 55.1 55.1 0 0 1-54.979 54.958m0-506.86a54.897 54.897 0 0 1-54.979-54.979 54.968 54.968 0 1 1 109.94 0 54.897 54.897 0 0 1-54.958 54.958"/></g></svg>