<svg xmlns="http://www.w3.org/2000/svg" viewBox="0 0 24 24"><path fill="none" stroke="#faf9f6" stroke-linecap="round" stroke-width=".4" d="M12 12V2m0 10v10m0-10H2m10 0h10m-10 0L4.9 4.9M12 12l7.1 7.1M12 12l7.1-7.1M12 12l-7.1 7.1M12 12 8.5 3.5M12 12l3.5-8.5M12 12l-3.5 8.5M12 12l3.5 8.5M12 12 3.5 8.5M12 12l-8.5 3.5M12 12l8.5-3.5M12 12l8.5 3.5M12 12 6.5 4.5M12 12l5.5-7.5M12 12l-5.5 7.5M12 12l5.5 7.5M12 12 4.5 6.5M12 12l-7.5 5.5M12 12l7.5-5.5M12 12l7.5 5.5"/><circle cx="12" cy="12" r="2" fill="#faf9f6" opacity=".9"/><circle cx="12" cy="12" r="1.2" fill="#faf9f6"/></svg>