<svg xmlns="http://www.w3.org/2000/svg" viewBox="0 0 206 194"><path fill="#e8e6e3" stroke="#000" stroke-width="1.648" d="M61.578 143.18s28.992-95.94 56.328-123c11.597-11.48 25.679-7.38 29.82-4.92 11.597 8.2 15.739 20.5 21.537 31.16-18.224-4.1-12.425-13.12-32.306-10.66L148.554 144z"/><path d="m52.669 167.6 10.121-30.767c14.721-5.274 45.084-4.395 86.488 5.274l3.68 29.888z"/><g stroke="#000" stroke-width="2.183"><path fill="#e8e6e3" d="M38.958 179.87c30.798 2.957 68.551-1.971 117.23.985 13.909.986 30.798.986 43.714-8.869 1.987-1.97 5.961-6.898-3.974-8.87-2.98-.985-2.98 4.928-28.811 1.972-33.779-3.942-68.551-15.768-97.363-18.724-29.805-1.971-54.642-1.971-65.571 10.84-10.928 11.826 4.967 18.724 34.772 21.68z" transform="matrix(.88113 0 0 .95225 11.141 4.136)"/><path fill="#e8e6e3" d="M37.736 149.68c-10 0-20 1-29 5-3 1-6 4-7 8-2 4-2 10 2 14 5 6 13 8 20 10 24 6 48 4 72 4 21-1 42-1 63 1 26-1 36-7 43-23-17 6-19 11-51 4-26-6-50-18-76-22-12-1-17.873-.944-29.873-.944z" transform="matrix(.88113 0 0 .95225 11.141 4.136)"/><path fill="none" d="M142.63 33.287c-1-3-3-7-1-9s6-3 4 3" transform="matrix(.88113 0 0 .95225 11.141 4.136)"/></g></svg>