<svg xmlns="http://www.w3.org/2000/svg" viewBox="0 0 640 640"><g stroke-width=".107"><path fill="#e8e6e3" d="M19.81 19.81h600.371v600.371H19.81z"/><path fill="#707070" d="m177.67 521.519 45.945-27.805c8.864 15.715 16.927 29.012 36.266 29.012 18.54 0 30.227-7.252 30.227-35.459V295.434h56.419v192.63c0 58.436-34.254 85.035-84.228 85.035-45.133 0-71.332-23.375-84.631-51.585m199.504-6.046 45.937-26.6c12.094 19.75 27.81 34.257 55.617 34.257 23.377 0 38.285-11.688 38.285-27.81 0-19.344-15.313-26.195-41.107-37.476l-14.1-6.049c-40.706-17.326-67.709-39.087-67.709-85.032 0-42.317 32.24-74.559 82.617-74.559 35.867 0 61.66 12.494 80.196 45.138l-43.928 28.208c-9.672-17.327-20.147-24.176-36.266-24.176-16.524 0-27.003 10.477-27.003 24.176 0 16.927 10.48 23.78 34.658 34.259l14.104 6.045c47.96 20.554 74.96 41.507 74.96 88.658 0 50.783-39.897 78.587-93.497 78.587-52.39 0-86.244-24.985-102.764-57.63"/></g></svg>