<svg xmlns="http://www.w3.org/2000/svg" viewBox="0 0 640 640"><path fill="#e8e6e3" d="M208.137 322.172s-32.916 20.026 22.912 25.763c67.061 8.569 103.013 7.153 177.413-7.153 0 0 20.026 12.853 47.222 22.912-167.41 71.532-379.154-4.284-247.528-41.484zm-21.46-92.99s-35.765 27.196 20.026 32.915c72.965 7.153 130.396 8.569 228.938-11.437 0 0 12.853 14.306 34.331 21.459-201.741 60.094-427.81 5.719-283.295-42.919zm394.914 163.106s24.328 20.025-27.197 35.766c-95.86 28.613-402.048 37.2-487.904 0-30.047-12.853 27.196-31.668 45.787-34.331 18.628-4.285 28.613-4.285 28.613-4.285-32.897-22.912-218.916 47.222-94.444 67.06C388.4 512.29 670.26 432.172 581.554 392.122zm-357.732-260.4s-155.954 37.2-55.81 50.071c42.92 5.72 127.341 4.285 206.026-1.434 64.379-5.719 128.776-17.175 128.776-17.175s-22.913 10.022-38.635 20.025C305.394 224.86.64 206.288 87.93 163.35c74.4-35.766 135.929-31.668 135.929-31.668zm279.01 155.953c160.238-82.988 85.838-163.107 34.332-153.085-12.854 2.869-18.628 5.719-18.628 5.719s4.284-8.569 14.306-11.438c101.578-35.765 181.716 107.298-32.916 163.107 0 0 1.435-1.434 2.869-4.284zm-263.25 226.05c154.519 10.023 390.628-5.718 396.329-78.684 0 0-11.438 28.613-127.341 50.072-131.626 24.328-294.733 21.46-390.63 5.719 0 0 20.026 17.175 121.641 22.912z"/></svg>