<svg xmlns="http://www.w3.org/2000/svg" viewBox="0 0 640 640"><path fill="#e8e6e3" d="M294.9 21.66c15.303-8.665 34.814-8.704 49.735 0l228.47 128.79c14.289 8.034 23.854 23.968 23.72 40.438v258.24c.096 17.158-10.406 33.437-25.479 41.318l-227.25 128.2a49.74 49.74 0 0 1-50.481-1.396l-68.194-39.405c-4.648-2.774-9.87-4.974-13.161-9.47 2.908-3.901 8.072-4.399 12.281-6.12 9.488-3.023 18.172-7.652 26.895-12.548 2.2-1.53 4.897-.957 7.001.42l58.151 33.629c4.151 2.39 8.36-.766 11.917-2.774l223.14-125.92c2.755-1.34 4.285-4.247 4.055-7.27v-255.75c.306-3.442-1.664-6.58-4.782-7.976l-226.68-127.65a7.84 7.84 0 0 0-8.895-.019l-226.35 127.91c-3.06 1.397-5.164 4.495-4.782 7.939v255.75c-.268 3.022 1.34 5.872 4.113 7.173l60.485 34.145c11.362 6.121 25.307 9.564 37.818 5.069a28.69 28.69 0 0 0 18.574-26.952l.057-254.22c-.267-3.768 3.29-6.886 6.944-6.504h29.076c3.826-.095 6.83 3.96 6.313 7.747l-.058 255.83c.02 22.725-9.315 47.44-30.338 58.591-25.9 13.39-57.922 10.578-83.516-2.295l-65.038-35.962c-15.303-7.652-25.575-24.179-25.479-41.318V191.06a47.06 47.06 0 0 1 24.523-40.955zm65.879 179.01c33.035-1.913 68.404-1.262 98.13 15.016 23.012 12.472 35.771 38.64 36.192 64.234-.65 3.443-4.247 5.356-7.537 5.107-9.564-.019-19.167.134-28.77-.057-4.074.153-6.427-3.596-6.943-7.193-2.755-12.242-9.43-24.35-20.946-30.262-17.675-8.856-38.181-8.416-57.463-8.225-14.08.765-29.21 1.97-41.127 10.234-9.182 6.274-11.936 19.13-8.666 29.114 3.06 7.326 11.535 9.68 18.44 11.86 39.826 10.406 82.005 9.564 121.08 23.088 16.164 5.586 31.983 16.451 37.531 33.38 7.231 22.687 4.075 49.811-12.05 68.022-13.085 14.997-32.137 22.954-51.17 27.584-25.307 5.643-51.552 5.777-77.242 3.252-24.16-2.755-49.295-9.105-67.945-25.556-15.953-13.849-23.72-35.426-22.954-56.239.192-3.52 3.692-5.968 7.078-5.681h28.693c3.864-.268 6.695 3.06 6.886 6.695 1.78 11.477 6.16 23.91 16.336 30.606 19.626 12.663 44.245 11.783 66.702 12.147 18.612-.823 39.501-1.071 54.708-13.39 8.034-7.02 10.387-18.746 8.226-28.846-2.353-8.532-11.477-12.491-19.13-15.303-39.31-12.434-81.966-7.92-120.89-21.998-15.8-5.586-31.083-16.145-37.147-32.385-8.474-22.954-4.591-51.4 13.256-68.997 17.216-17.503 42.466-24.255 66.377-26.665z"/></svg>