<svg xmlns="http://www.w3.org/2000/svg" viewBox="0 0 640 640"><defs><clipPath id="a"><path d="M0 324h576V0H0z"/></clipPath></defs><g fill="#faf9f6" stroke-width=".08" clip-path="url(#a)" transform="matrix(1.6205 0 0 -1.8789 -152.98 644.7)"><path d="M161.73 145.31c12.065 0 21.072 2.225 26.77 6.61 5.638 4.34 9.532 11.862 11.573 22.353 1.903 9.806 1.178 16.653-2.154 20.348-3.407 3.774-10.773 5.688-21.893 5.688h-19.28l-10.69-55zM98.666 77.56c-.895 0-1.745.4-2.314 1.092a3 3 0 0 0-.63 2.48l28.328 145.75a3 3 0 0 0 2.945 2.427h61.054c19.188 0 33.47-5.2 42.447-15.487 9.025-10.33 11.812-24.772 8.283-42.92-1.436-7.394-3.906-14.26-7.34-20.41-3.44-6.155-7.984-11.85-13.51-16.93-6.616-6.192-14.104-10.682-22.236-13.324-8.003-2.607-18.28-3.93-30.548-3.93h-24.722l-7.06-36.322a3 3 0 0 0-2.944-2.428H98.666zm212.91 38.75a2.998 2.998 0 0 0-2.944 3.572l12.53 64.49c1.192 6.133.898 10.535-.827 12.395-1.056 1.137-4.228 3.044-13.607 3.044h-22.702l-15.755-81.072a3 3 0 0 0-2.945-2.428h-31.5a3 3 0 0 0-2.945 3.572l28.328 145.75a3 3 0 0 0 2.945 2.427h31.5a3 3 0 0 0 2.945-3.572l-6.836-35.178h24.422c18.605 0 31.22-3.28 38.57-10.028 7.5-6.884 9.827-17.89 6.947-32.72l-13.18-67.825a3 3 0 0 0-2.945-2.428zm97.97 29c12.065 0 21.072 2.225 26.77 6.61 5.638 4.34 9.532 11.86 11.574 22.353 1.903 9.806 1.178 16.653-2.155 20.348-3.407 3.774-10.773 5.688-21.893 5.688h-19.28l-10.69-55zm-63.062-67.75c-.895 0-1.745.4-2.314 1.092a3 3 0 0 0-.631 2.48l28.328 145.75a3 3 0 0 0 2.946 2.427h61.053c19.19 0 33.47-5.2 42.448-15.487 9.025-10.33 11.81-24.77 8.283-42.92-1.438-7.394-3.907-14.26-7.342-20.41-3.44-6.155-7.984-11.85-13.51-16.93-6.616-6.192-14.104-10.682-22.236-13.324-8.003-2.607-18.28-3.93-30.548-3.93h-24.725l-7.057-36.322a3 3 0 0 0-2.946-2.428h-31.75z"/></g></svg>