<svg xmlns="http://www.w3.org/2000/svg" viewBox="0 0 640 640"><g fill="#e8e6e3"><path d="M246.04 139.442c10.343 0 18.708 8.36 18.708 18.702 0 10.35-8.365 18.708-18.708 18.708-10.349 0-18.708-8.359-18.708-18.708 0-10.343 8.359-18.702 18.708-18.702m57.332-32.92c-108.96 0-102.153 47.255-102.153 47.255l.123 48.948H305.32v14.698H160.04s-69.72-7.903-69.72 102.036c0 109.934 60.855 106.041 60.855 106.041h36.32v-51.018s-1.959-60.856 59.883-60.856h103.126s57.943.936 57.943-55.996v-94.139s8.796-56.969-105.074-56.969"/><path d="M393.966 500.562c-10.349 0-18.708-8.36-18.708-18.702 0-10.35 8.359-18.708 18.708-18.708 10.343 0 18.702 8.359 18.702 18.708 0 10.343-8.36 18.702-18.702 18.702m-57.338 32.92c108.96 0 102.153-47.248 102.153-47.248l-.117-48.955H334.687v-14.698h145.274s69.72 7.91 69.72-102.036c0-109.934-60.855-106.041-60.855-106.041h-36.314v51.018s1.959 60.856-59.883 60.856H289.503s-57.943-.936-57.943 55.996v94.139s-8.796 56.969 105.068 56.969"/></g></svg>