<svg xmlns="http://www.w3.org/2000/svg" viewBox="0 0 640 640"><g fill="none" fill-rule="evenodd" transform="matrix(1.1794 0 0 1.1854 2.112 37.765)"><circle cx="269.53" cy="237.63" r="50.167" fill="#e8e6e3"/><g stroke="#e8e6e3" stroke-width="12"><path d="M269.53 135.63c67.356 0 129.93 9.665 177.11 25.907 56.844 19.57 91.794 49.233 91.794 76.093 0 27.99-37.04 59.503-98.083 79.728-46.15 15.29-106.88 23.272-170.82 23.272-65.554 0-127.63-7.492-174.3-23.44C36.185 297.008.621 265.087.621 237.63c0-26.642 33.37-56.076 89.415-75.616 47.355-16.51 111.47-26.384 179.49-26.384z"/><path d="M180.74 186.92c33.65-58.348 73.28-107.72 110.92-140.48C337.01 6.974 380.167-8.482 403.43 4.935c24.248 13.983 33.042 61.814 20.067 124.8-9.8 47.618-33.234 104.21-65.176 159.6-32.75 56.788-70.25 106.82-107.38 139.27-46.98 41.068-92.4 55.93-116.18 42.213-23.08-13.3-31.906-56.92-20.834-115.23 9.355-49.27 32.832-109.74 66.8-168.66z"/><path d="M180.82 289.48c-33.745-58.282-56.72-117.29-66.31-166.26-11.544-59-3.382-104.11 19.864-117.57 24.224-14.024 70.055 2.244 118.14 44.94 36.356 32.28 73.688 80.837 105.72 136.17 32.844 56.733 57.46 114.21 67.036 162.58 12.117 61.213 2.31 107.98-21.453 121.74-23.057 13.348-65.25-.784-110.24-39.5-38.013-32.71-78.682-83.253-112.76-142.12z"/></g></g></svg>