<svg xmlns="http://www.w3.org/2000/svg" viewBox="0 0 640 640"><g stroke-width="1.323"><path fill="#e8e6e3" d="m196.363 528.085 308.583-20.942L528.71 195.99l-94.027 190.58z"/><path fill="#faf9f6" d="m406.685 419.268 98.766 87.664-26.524-183.06z"/><path fill="#faf9f6" d="m197.395 527.684 308.415-20.752L311.5 491.68z"/><path fill="#faf9f6" d="m139.395 391.543 58.274 136.183 48.54-159.02zm94.785-26.883 172.484 55.135-44.665-174.949z"/><path fill="#faf9f6" d="m364.106 257.403 154.47-10.092-120.824-98.682z"/><path fill="#faf9f6" d="m346.177 112.919 115.895.526-71.062 39.271zM116.979 325.916l-5.689 118.971 29.77-54.292z"/></g><path fill="#e8e6e3" d="m115.377 323.872 24.229 68.724 105.276-23.617 120.193-111.702 33.92-107.742-53.408-37.712-90.803 33.983c-28.61 26.609-84.124 79.258-86.126 80.248-1.98 1.011-36.658 66.554-53.28 97.818"/><g stroke-width="1.323"><path fill="#e8e6e3" d="M200.45 200.414c62.003-61.476 141.935-97.798 172.61-66.849 30.654 30.95-1.854 106.162-63.857 167.617s-140.945 99.778-171.599 68.83c-30.675-30.928.843-108.143 62.846-169.598m-2.781 327.249 48.161-159.527 159.949 51.385c-57.832 54.23-122.153 100.073-208.11 108.142M365.286 256.96l41.062 162.645c48.308-50.795 91.666-105.403 112.903-172.947z"/><path fill="#e8e6e3" d="M518.83 247.48c16.433-49.594 20.225-120.74-57.263-133.95l-63.583 35.12zM111.29 444.17c2.276 81.85 61.33 83.072 86.484 83.788L139.67 392.26zm254.228-186.957c37.122 22.817 111.934 68.64 113.451 69.483 2.36 1.327 32.255-50.416 39.039-79.659z"/><path fill="#faf9f6" d="m245.767 368.136 64.384 124.217c38.07-20.646 67.881-45.802 95.185-72.748zm-106.351 24.292-9.122 108.626c17.212 23.512 40.893 25.556 65.732 23.723-17.971-44.727-53.871-134.161-56.61-132.35m258.188-243.503 127.904 17.95c-6.826-28.927-27.789-47.593-63.52-53.429z"/></g></svg>