<svg xmlns="http://www.w3.org/2000/svg" viewBox="0 0 640 640"><path fill="#faf9f6" d="M300.49 80.874a18.594 18.594 0 1 1 37.188 0 18.594 18.594 0 0 1-37.188 0M78.65 249.214a18.594 18.594 0 1 1 37.188 0 18.594 18.594 0 0 1-37.188 0m443.68.86a18.594 18.594 0 0 1 37.188 0 18.594 18.594 0 0 1-37.188 0M132.46 275.61a17.01 17.01 0 0 0 8.623-22.407l-8.251-18.653h32.457V380.8h-65.48a228.8 228.8 0 0 1-7.41-87.398zm135.73 3.598v-43.113h77.27c3.989 0 28.155 4.614 28.155 22.68 0 15.017-18.575 20.413-33.825 20.413zm-105.5 232.1a18.594 18.594 0 1 1 37.188 0 18.594 18.594 0 0 1-37.188 0m275.55.86a18.594 18.594 0 0 1 37.188 0 18.594 18.594 0 0 1-37.188 0m5.748-42.174a16.95 16.95 0 0 0-20.139 13.041l-9.326 43.562a228.96 228.96 0 0 1-190.93-.919l-9.326-43.562a16.913 16.913 0 0 0-20.14-13.04l-38.458 8.25a235 235 0 0 1-19.885-23.443h187.11c2.111 0 3.519-.39 3.519-2.307v-66.184c0-1.955-1.408-2.307-3.52-2.307h-54.745v-41.96h59.184c5.396 0 28.879 1.565 36.406 31.558l11.047 48.88c3.519 10.754 17.85 32.32 33.102 32.32h96.588a235 235 0 0 1-21.214 24.538zm103.9-174.76a229 229 0 0 1 .49 39.75h-23.464c-2.346 0-3.324 1.564-3.324 3.852v10.793c0 25.418-14.312 30.892-26.865 32.32-11.927 1.369-25.222-5.005-26.826-12.318-7.039-39.652-18.77-48.098-37.149-62.762 23.013-14.625 46.964-36.172 46.964-65.05 0-31.166-21.37-50.797-35.937-60.416-20.432-13.491-43.054-16.17-49.154-16.17h-243.13a228.76 228.76 0 0 1 128.09-72.284L306.227 123c6.452 6.785 17.206 7.039 23.971.547l32.066-30.638a228.96 228.96 0 0 1 156.75 111.62l-21.938 49.545a17.01 17.01 0 0 0 8.623 22.407zm54.707.782-.743-7.664 22.602-21.077c4.595-4.302 2.875-12.904-2.991-15.094l-28.88-10.793-2.267-7.43 17.988-25.027c3.676-5.084.293-13.198-5.866-14.214l-30.462-4.947-3.656-6.843 12.807-28.096c2.62-5.729-2.249-13.04-8.544-12.807l-30.892 1.075-4.888-5.924 7.097-30.11c1.427-6.12-4.77-12.318-10.891-10.89l-30.11 7.097-5.944-4.888 1.075-30.892c.235-6.257-7.077-11.145-12.787-8.545l-28.077 12.807-6.843-3.676-4.966-30.462c-.978-6.178-9.131-9.541-14.214-5.865l-25.027 17.988-7.43-2.249-10.793-28.879c-2.19-5.865-10.812-7.586-15.094-3.01L351.722 38.2l-7.664-.743L327.79 11.16c-3.285-5.318-12.122-5.318-15.388 0l-16.267 26.298-7.665.743-21.116-22.64c-4.301-4.576-12.904-2.875-15.094 3.01l-10.793 28.88-7.43 2.248-25.027-17.988c-5.083-3.676-13.217-.293-14.214 5.865l-4.966 30.462-6.843 3.676-28.077-12.807c-5.71-2.6-13.041 2.288-12.787 8.545l1.075 30.892-5.944 4.888-30.11-7.098c-6.12-1.427-12.318 4.77-10.89 10.891l7.097 30.11-4.888 5.924-30.892-1.075c-6.257-.195-11.145 7.078-8.544 12.807l12.807 28.096-3.676 6.843-30.462 4.947c-6.179.978-9.542 9.131-5.866 14.214l17.988 25.027-2.268 7.43-28.879 10.793c-5.866 2.19-7.586 10.812-2.991 15.094l22.602 21.077-.743 7.664-26.298 16.267c-5.319 3.285-5.319 12.122 0 15.388l26.298 16.267.743 7.665-22.661 21.155c-4.576 4.301-2.875 12.904 2.991 15.094l28.879 10.793 2.268 7.43-17.988 25.026c-3.656 5.084-.293 13.217 5.866 14.214l30.443 4.947 3.676 6.843-12.807 28.077c-2.6 5.71 2.307 13.041 8.544 12.807l30.892-1.075 4.888 5.944-7.097 30.11c-1.428 6.1 4.77 12.318 10.89 10.87l30.11-7.097 5.944 4.888-1.075 30.892c-.235 6.257 7.078 11.145 12.787 8.545l28.077-12.807 6.843 3.675 4.967 30.443c.977 6.199 9.13 9.542 14.214 5.905l25.027-18.027 7.43 2.268 10.792 28.88c2.19 5.865 10.812 7.585 15.094 2.99l21.077-22.601 7.665.782 16.267 26.298c3.285 5.279 12.083 5.318 15.388 0l16.267-26.298 7.664-.782 21.077 22.602c4.302 4.594 12.904 2.874 15.094-2.992l10.793-28.879 7.43-2.268 25.027 18.027c5.084 3.657 13.217.294 14.214-5.905l4.966-30.443 6.844-3.675 28.077 12.807c5.709 2.6 13.022-2.268 12.787-8.545l-1.076-30.892 5.924-4.888 30.11 7.098c6.12 1.427 12.318-4.77 10.891-10.871l-7.097-30.11 4.888-5.944 30.892 1.075c6.257.255 11.145-7.097 8.544-12.807l-12.807-28.077 3.657-6.843 30.462-4.947c6.198-.977 9.58-9.11 5.865-14.214l-17.988-25.027 2.268-7.43 28.88-10.792c5.865-2.21 7.585-10.812 2.99-15.094l-22.601-21.077.743-7.665 26.298-16.267c5.318-3.285 5.337-12.083 0-15.388z"/></svg>