<svg xmlns="http://www.w3.org/2000/svg" viewBox="0 0 640 640"><path fill="#e8e6e3" d="M552.96 355.92c-22.572.129-42.112 5.549-58.509 13.622-6.055-11.982-12.111-22.443-13.116-30.259-1.134-9.079-2.525-14.627-1.134-25.475s7.696-26.231 7.696-27.485c-.129-1.134-1.374-6.682-14.379-6.811s-24.22 2.525-25.475 6.012a145 145 0 0 0-5.42 19.291c-2.267 11.853-25.974 53.854-39.467 75.911-4.414-8.572-8.194-16.148-8.95-22.194-1.133-9.078-2.525-14.627-1.133-25.475s7.696-26.23 7.696-27.485c-.13-1.134-1.375-6.682-14.38-6.81-13.003-.13-24.22 2.524-25.474 6.011s-2.646 11.475-5.412 19.291c-2.645 7.73-34.167 77.93-42.37 96.198-4.157 9.328-7.73 16.775-10.479 21.816s-.129.378-.378.885l-3.521 6.682v.13c-1.77 3.151-3.659 6.183-4.552 6.183-.627 0-1.89-8.451.257-20.047 4.664-24.333 16.01-62.288 15.89-63.68 0-.627 2.148-7.3-7.3-10.719-9.208-3.4-12.48 2.268-13.227 2.268-.748 0-1.375 2.018-1.375 2.018S298.67 323.05 268.9 323.05c-18.664 0-44.388 20.304-57.118 38.84l-64.306 35.181-1.374-1.511c-36.074-38.462-102.77-65.707-99.994-117.4 1.005-18.785 7.558-68.344 128.12-128.36 98.732-49.173 177.8-35.688 191.54-5.67 19.55 42.86-42.24 122.56-144.88 134.04-39.08 4.416-59.642-10.718-64.813-16.386-5.411-6.012-6.184-6.184-8.194-5.042-3.281 1.77-1.263 7.06 0 10.221 3.023 7.945 15.632 22.074 37.07 29.117 18.785 6.184 64.675 9.586 120.16-11.853 62.125-24.35 110.67-91.087 96.43-146.96C387.025 80.4 292.71 61.743 203.56 93.393c-53.08 18.921-110.58 48.416-151.94 87.12-49.173 45.9-56.997 85.993-53.716 102.64 11.475 59.393 93.312 98.104 126.09 126.72l-4.552 2.524c-16.387 8.074-78.805 40.73-94.446 75.275-17.65 39.08 2.774 67.21 16.387 70.99 42.112 11.723 85.238-9.328 108.57-44.01 23.19-34.675 20.425-79.69 9.705-100.23l-.377-.757 12.858-7.558a767 767 0 0 1 23.706-13.364c-4.037 10.968-6.932 23.964-8.452 42.86-1.77 22.193 7.3 50.932 19.29 62.287 5.3 4.922 11.596 5.042 15.513 5.042 13.87 0 20.184-11.475 27.107-25.217 8.572-16.775 16.148-36.185 16.148-36.185s-9.448 52.582 16.387 52.582c9.448 0 18.913-12.231 23.19-18.535v.129s.259-.378.757-1.263c1.005-1.511 1.511-2.405 1.511-2.405v-.257c3.78-6.554 12.231-21.473 24.84-46.406 16.268-32.037 31.9-72.123 31.9-72.123s1.51 9.834 6.183 25.974c2.775 9.585 8.83 20.047 13.485 30.259l-6.055 8.33.129.13c-3.023 4.037-6.442 8.331-9.963 12.609-12.858 15.374-28.241 32.914-30.26 37.964-2.404 6.012-1.89 10.34 2.775 13.87 3.401 2.526 9.448 3.024 15.89 2.526 11.595-.756 19.755-3.659 23.706-5.411a82.1 82.1 0 0 0 20.425-10.72c12.609-9.327 20.304-22.571 19.549-40.222-.378-9.706-3.522-19.291-7.438-28.37l3.4-5.042c19.927-29.117 35.302-61.154 35.302-61.154s1.512 9.835 6.184 25.974c2.405 8.194 7.19 17.152 11.475 25.974-18.664 15.254-30.388 32.914-34.425 44.51-7.438 21.438-1.632 31.143 9.328 33.497 4.921 1.005 11.982-1.263 17.264-3.521 6.553-2.148 14.499-5.798 21.816-11.226 12.609-9.328 24.71-22.314 24.084-39.854-.378-8.074-2.525-16.01-5.411-23.577 15.89-6.554 36.443-10.341 62.546-7.19 56.113 6.554 67.209 41.614 65.063 56.241-2.148 14.627-13.871 22.701-17.78 25.217-3.908 2.405-5.171 3.282-4.793 5.042.515 2.646 2.267 2.525 5.669 2.019 4.664-.756 29.503-11.982 30.517-38.96 1.511-34.674-31.402-72.492-89.782-72.123zM120.22 501.81c-18.535 20.304-44.638 28.001-55.743 21.439-11.982-6.931-7.3-36.821 15.512-58.381 13.871-13.116 31.899-25.217 43.753-32.656l11.475-6.931a10.4 10.4 0 0 1 1.263-.756 108 108 0 0 0 2.903-1.77c8.451 30.766.378 57.753-19.154 79.063zm135.55-92.178c-6.442 15.761-20.047 56.241-28.241 53.965-7.06-1.89-11.338-32.535-1.374-62.787 5.042-15.254 15.76-33.498 22.074-40.48 10.22-11.338 21.3-15.134 24.084-10.462 3.28 6.055-12.48 49.937-16.517 59.78zm111.84 53.467c-2.774 1.374-5.3 2.405-6.442 1.632-.885-.515 1.134-2.405 1.134-2.405s14-15.005 19.549-21.936l10.968-14v1.512c0 18.157-17.402 30.259-25.217 35.18zm86.252-19.755c-2.018-1.512-1.77-6.184 5.042-20.803 2.645-5.798 8.7-15.512 19.154-24.711 1.262 3.78 2.018 7.438 1.89 10.848-.13 22.701-16.269 31.144-26.112 34.674z"/></svg>