<svg xmlns="http://www.w3.org/2000/svg" viewBox="0 0 640 640"><path fill="#faf9f6" fill-rule="evenodd" d="M551.57 138.21 357.59 23.07a72.95 72.95 0 0 0-74.483 0L89.087 138.21a77.36 77.36 0 0 0-37.722 66.651v230.28a77.36 77.36 0 0 0 37.395 66.651l193.98 115.14a72.95 72.95 0 0 0 74.483 0l194.02-115.14a77.36 77.36 0 0 0 37.395-66.651v-230.28a77.36 77.36 0 0 0-37.05-66.651zM401.32 497.8v16.509a6.1 6.1 0 0 1-2.841 5.087l-9.829 5.625c-1.535.806-2.84 0-2.84-2.17v-16.26a31.87 31.87 0 0 1-22.346 2.17c-1.19-.807-1.65-2.342-1.075-3.84l3.513-14.973c.307-1.267.96-2.4 1.958-3.263a3.5 3.5 0 0 1 .96-.672 2.1 2.1 0 0 1 1.536 0 27.07 27.07 0 0 0 20.329-2.572 27.07 27.07 0 0 0 15.165-23.228c0-8.408-4.607-11.902-15.741-11.998-14.09 0-26.875-2.688-27.451-23.497a60.23 60.23 0 0 1 22.767-46.072v-16.74c-.02-1.92 1.075-3.84 2.84-5.145l9.484-6.028c1.536-.806 2.841 0 2.841 2.227v16.74a30.9 30.9 0 0 1 18.563-2.227c1.344.768 1.881 2.457 1.229 3.84l-3.321 14.839a6.24 6.24 0 0 1-1.69 2.975c-.268.288-.575.538-.96.768s-.96.154-1.42 0a24.57 24.57 0 0 0-17.872 2.918 22.46 22.46 0 0 0-13.553 19.907c0 7.583 3.993 9.886 17.411 10.174 17.949 0 25.666 8.12 25.877 26.146a64.24 64.24 0 0 1-23.574 48.568zm101.61-27.835c.23 1.42-.346 2.88-1.497 3.724l-48.856 29.793a1.48 1.48 0 0 1-1.67.134c-.519-.307-.768-.96-.634-1.535v-12.67c.058-1.382.96-2.611 2.227-3.11l48.299-28.93a1.48 1.48 0 0 1 1.67-.133c.518.307.768.96.633 1.535v11.172zm33.882-283.19-183.56 113.38c-22.902 13.553-39.737 28.373-39.737 55.939v226.1c0 16.509 6.776 26.875 16.932 30.331a60.3 60.3 0 0 1-10.174 1.017 60.1 60.1 0 0 1-30.619-8.465l-193.98-115.12c-19.35-11.576-30.83-32.404-30.753-54.768v-230.32c-.115-22.422 11.403-43.231 30.753-54.864l193.98-115.14a59.82 59.82 0 0 1 60.969 0l193.98 115.14c15.991 9.675 26.875 25.916 29.793 44.152-6.296-13.687-20.79-17.277-37.664-7.583h.058z"/></svg>