<svg xmlns="http://www.w3.org/2000/svg" viewBox="0 0 640 640"><path fill="#707070" d="M536.64 100.19C481.435 20.675 371.53-2.62 292.52 47.517l-139.28 89.138c-37.985 23.804-64.321 62.802-71.918 106.86-6.584 36.972-1.013 74.957 16.713 107.88-12.155 18.233-20.259 38.491-23.804 59.763-8.104 45.076 2.532 91.671 28.869 128.64 55.712 79.515 165.11 102.81 244.12 52.673l139.28-88.632c37.985-23.804 64.322-62.802 71.918-106.86 6.584-36.972 1.013-74.957-16.713-107.88 12.155-18.233 20.259-38.492 23.804-59.763 8.61-45.582-2.026-92.177-28.869-129.15"/><path fill="#e8e6e3" d="M278.98 547.4c-45.076 11.649-92.177-6.078-118.51-44.063-16.207-22.285-22.285-50.14-17.726-77.49 1.013-4.558 2.026-8.61 3.039-13.168l2.532-8.103 7.09 5.064q25.072 18.233 54.7 27.35l5.064 1.519-.506 5.064c-.506 7.09 1.52 14.688 5.571 20.765 8.104 11.65 22.285 17.22 35.96 13.675 3.038-1.013 6.077-2.026 8.61-3.545l138.77-88.632c7.09-4.558 11.648-11.142 13.167-19.246s-.506-16.713-5.064-23.297c-8.104-11.649-22.285-16.713-35.96-13.168-3.038 1.013-6.077 2.026-8.61 3.545l-53.178 33.933c-8.61 5.571-18.233 9.623-28.362 12.155-45.076 11.65-92.177-6.077-118.51-44.063-15.701-22.285-22.285-50.14-17.22-77.49 4.558-26.336 20.765-50.14 43.556-64.32l139.28-88.633c8.61-5.57 18.233-9.623 28.362-12.662 45.076-11.649 92.177 6.078 118.51 44.063 16.207 22.285 22.285 50.14 17.726 77.49-1.013 4.558-2.026 8.61-3.546 13.168l-2.532 8.104-7.09-5.065q-25.07-18.233-54.7-27.349l-5.064-1.52.506-5.064c.506-7.09-1.52-14.688-5.571-20.765-8.104-11.65-22.285-16.713-35.96-13.168-3.038 1.013-6.077 2.026-8.61 3.545l-138.77 88.632c-7.09 4.558-11.648 11.142-13.167 19.246s.506 16.713 5.065 23.297c8.103 11.65 22.285 16.713 35.959 13.168 3.038-1.013 6.077-2.026 8.61-3.545l53.178-33.933c8.61-5.571 18.233-9.623 28.362-12.662 45.076-11.65 92.177 6.077 118.51 44.063 16.207 22.285 22.285 50.14 17.726 77.49-4.558 26.336-20.765 50.14-43.556 64.32l-139.28 88.633c-8.61 5.571-18.233 9.623-28.362 12.662"/></svg>