<svg xmlns="http://www.w3.org/2000/svg" viewBox="0 0 640 640"><path fill="#e8e6e3" d="M475.39 513.85c-72.282 37.549-171.57 41.355-271.29 2.968-77.8-29.773-144.41-81.06-191.18-147.24 21.819 15.476 45.566 28.314 70.722 38.183 103.07 42.433 206.37 40.517 278.88 0-95.712-69.263-181.91-149.66-256.56-239.32a268.6 268.6 0 0 1-34.352-42.433c78.396 62.628 161.79 119.37 249.43 169.73-63.833-61.55-122.54-127.74-175.57-197.96 88.431 80.718 185.64 152.26 290 213.45l11.163 5.937a193 193 0 0 0 7.814-21.223c24.102-78.929-3.349-168.67-63.58-242.93 139.44 75.732 222 218.1 187.62 337.35 0 3.172-1.776 6.368-2.917 9.552l1.116 1.269c68.933 77.445 49.98 159.33 41.279 143.85-37.701-64.696-107.53-44.78-142.56-31.206z"/></svg>