<svg xmlns="http://www.w3.org/2000/svg" viewBox="0 0 640 640"><path fill="#faf9f6" fill-rule="evenodd" d="M160.54 256.22c21.257-85.04 74.416-127.56 159.46-127.56 127.56 0 143.51 95.673 207.29 111.62 42.525 10.634 79.728-5.312 111.62-47.837-21.257 85.04-74.416 127.56-159.46 127.56-127.56 0-143.51-95.673-207.29-111.62-42.525-10.634-79.728 5.312-111.62 47.837M1.08 447.57c21.257-85.04 74.416-127.56 159.46-127.56 127.56 0 143.51 95.673 207.29 111.62 42.525 10.634 79.728-5.312 111.62-47.837-21.257 85.04-74.416 127.56-159.46 127.56-127.56 0-143.51-95.673-207.29-111.62-42.525-10.634-79.728 5.312-111.62 47.837"/></svg>