<svg xmlns="http://www.w3.org/2000/svg" viewBox="0 0 640 640"><g stroke-width=".125"><rect width="584.71" height="584.71" x="30.599" y="29.952" fill="#faf9f6" rx="57.1"/><path fill="#e96077" fill-rule="evenodd" d="M392.55 495.23v57.17q13.94 7.146 32.975 10.719 19.034 3.573 40.124 3.573 20.554 0 39.052-3.93t32.44-12.953q13.941-9.021 22.073-23.582t8.132-35.998q0-15.544-4.647-27.245-4.646-11.702-13.405-20.813-8.758-9.112-21-16.348t-27.614-13.666q-11.26-4.645-20.196-9.022-8.936-4.379-15.192-8.933-6.255-4.557-9.65-9.648-3.396-5.092-3.397-11.524 0-5.895 3.039-10.63 3.038-4.733 8.579-8.129 5.54-3.394 13.583-5.27 8.044-1.875 17.874-1.875 7.148 0 15.102 1.071a120 120 0 0 1 15.997 3.305 111.4 111.4 0 0 1 15.639 5.628q7.595 3.394 14.03 7.862v-53.42q-13.047-5.001-28.507-7.413t-35.478-2.412q-20.376 0-38.606 4.377t-32.082 13.666q-13.852 9.29-21.893 23.673-8.043 14.381-8.043 34.39 0 25.548 14.746 43.593 14.744 18.043 44.77 30.55 11.796 4.823 21.985 9.468 10.187 4.645 17.604 9.648 7.416 5.002 11.708 10.898 4.29 5.895 4.289 13.399 0 5.538-2.682 10.272-2.68 4.735-8.132 8.218-5.451 3.484-13.583 5.449t-19.035 1.965q-18.587 0-36.818-6.521-18.23-6.52-33.779-19.563zm-96.11-140.86h73.34v-46.916H165.36v46.916h72.981v208.89h58.098z" clip-rule="evenodd"/></g></svg>