<svg xmlns="http://www.w3.org/2000/svg" viewBox="0 0 640 640"><g stroke-width=".884"><g fill="#faf9f6" fill-rule="evenodd"><path d="M52.312 162.566v79.718a11.774 11.702 0 0 0 11.774 11.702h32.518a11.774 11.702 0 0 0 11.775-11.702v-79.718a11.774 11.702 0 0 0-11.775-11.702H64.086a11.774 11.702 0 0 0-11.774 11.702"/><path d="M62.065 239.938h511.223a10.14 10.14 0 0 1 10.142 10.141v297.189a10.14 10.14 0 0 1-10.142 10.141H62.065a10.14 10.14 0 0 1-10.141-10.141V250.079a10.14 10.14 0 0 1 10.141-10.141"/><g stroke-width=".904"><path d="M52.112 199.59h531.35v53.756H52.113z"/><path fill="#e96077" d="M108.473 250.341h50.84l26.757-47.746h-50.839zm130.183 0h50.84l26.757-47.746h-50.84zm130.183 0h50.84l26.757-47.746h-50.84zm130.183 0h50.839l26.757-47.746H525.78z"/></g><path d="M582.714 82.557 50.343 148.403l6.923 55.297 532.371-65.845z"/></g><g fill="#e96077" fill-rule="evenodd"><path d="m575.296 136.353-50.935 6.3-32.958-45.802 50.936-6.3zm-130.429 16.131-50.935 6.3-32.958-45.802 50.936-6.3zm-130.429 16.132-50.935 6.3-32.958-45.802 50.936-6.3zm-130.429 16.131-50.935 6.3-32.958-45.802 50.936-6.3z"/><path stroke="#e96077" stroke-width="3.535" d="M125.71 168.08a14.286 14.286 0 1 1-28.571 0 14.286 14.286 0 1 1 28.571 0z" transform="matrix(.77891 -.09634 .09693 .77418 -25.277 52.154)"/></g><g fill="none" stroke="#e96077" stroke-width="3.535"><path d="M104.12 618.35H726.7" transform="matrix(.78492 0 0 .78016 -8.397 -16.845)"/><path d="M307.96 713.15v-93.833m256.47 93.833v-93.833" transform="matrix(.78492 0 0 .78016 -24.709 -16.845)"/><path d="M104.12 524.49H726.7m-622.58-93.86H726.7" transform="matrix(.78492 0 0 .78016 -8.397 -16.845)"/></g></g></svg>