<svg xmlns="http://www.w3.org/2000/svg" viewBox="0 0 640 640"><path fill="#faf9f6" d="m572.8 481.76-242.18 137V512.09l150.87-83.016zm16.581-14.994v-286.43l-88.58 51.199v184.14zM67.201 481.76l242.14 137V512.09l-150.96-83.035zM50.62 466.766v-286.43l88.58 51.199v184.14zm10.382-305.03 248.34-140.49v103.11l-160.39 88.281zm517.96 0-248.34-140.49v103.11l160.39 88.188z"/><path fill="#edccd2" d="m309.35 492.47-148.89-81.914v-162.15l148.89 85.966zm21.286 0 148.91-81.84V248.37l-148.91 86.003zM170.543 229.665l149.45-82.138 149.45 82.157-149.45 86.265z"/></svg>